<svg width="89" height="19" viewBox="0 0 89 19" fill="none" xmlns="http://www.w3.org/2000/svg">
<path d="M22.382 18.9582C21.3707 18.9582 20.4564 18.7838 19.639 18.4351C18.8355 18.0865 18.1983 17.5844 17.7273 16.9289C17.2563 16.2734 17.0139 15.4993 17 14.6067H20.117C20.1585 15.2064 20.3663 15.6806 20.7404 16.0293C21.1282 16.378 21.6547 16.5523 22.3196 16.5523C22.9984 16.5523 23.5318 16.3919 23.9197 16.0711C24.3075 15.7364 24.5015 15.304 24.5015 14.7741C24.5015 14.3417 24.3699 13.9861 24.1067 13.7071C23.8435 13.4282 23.511 13.212 23.1092 13.0586C22.7214 12.8912 22.1811 12.7099 21.4884 12.5146C20.5464 12.2357 19.7776 11.9637 19.1819 11.6987C18.6 11.4198 18.0944 11.0084 17.665 10.4644C17.2494 9.90656 17.0416 9.16736 17.0416 8.24686C17.0416 7.38215 17.2563 6.62901 17.6857 5.98745C18.1152 5.34589 18.7178 4.85774 19.4936 4.52301C20.2693 4.17434 21.1559 4 22.1534 4C23.6495 4 24.8617 4.3696 25.7898 5.10879C26.7318 5.83403 27.2513 6.85216 27.3483 8.16318H24.1482C24.1205 7.66109 23.9058 7.24965 23.5041 6.92887C23.1162 6.59414 22.5967 6.42678 21.9456 6.42678C21.3776 6.42678 20.9204 6.57322 20.5741 6.86611C20.2416 7.159 20.0754 7.58438 20.0754 8.14226C20.0754 8.53277 20.2001 8.86053 20.4494 9.12552C20.7126 9.37657 21.0313 9.58577 21.4053 9.75314C21.7932 9.90656 22.3335 10.0879 23.0261 10.2971C23.9681 10.576 24.737 10.855 25.3327 11.1339C25.9284 11.4128 26.4409 11.8312 26.8704 12.3891C27.2998 12.947 27.5145 13.6792 27.5145 14.5858C27.5145 15.3668 27.3137 16.092 26.9119 16.7615C26.5102 17.431 25.9214 17.9679 25.1457 18.3724C24.3699 18.7629 23.4486 18.9582 22.382 18.9582Z" fill="#18063C"/>
<path d="M29.0808 12.9749C29.0808 11.8033 29.3094 10.7643 29.7665 9.85774C30.2376 8.95119 30.8679 8.25384 31.6575 7.76569C32.461 7.27755 33.3545 7.03347 34.3381 7.03347C35.197 7.03347 35.9451 7.20781 36.5823 7.55648C37.2334 7.90516 37.7529 8.34449 38.1408 8.87448V7.22176H41.0707V18.8117H38.1408V17.1172C37.7667 17.6611 37.2473 18.1144 36.5823 18.477C35.9312 18.8257 35.1762 19 34.3173 19C33.3476 19 32.461 18.749 31.6575 18.2469C30.8679 17.7448 30.2376 17.0404 29.7665 16.1339C29.3094 15.2134 29.0808 14.1604 29.0808 12.9749ZM38.1408 13.0167C38.1408 12.3054 38.0023 11.6987 37.7252 11.1967C37.4481 10.6806 37.0741 10.2901 36.6031 10.0251C36.1321 9.74616 35.6264 9.60669 35.0862 9.60669C34.5459 9.60669 34.0472 9.73919 33.59 10.0042C33.1329 10.2692 32.7588 10.6597 32.4679 11.1757C32.1909 11.6778 32.0523 12.2775 32.0523 12.9749C32.0523 13.6722 32.1909 14.2859 32.4679 14.8159C32.7588 15.3319 33.1329 15.7294 33.59 16.0084C34.061 16.2873 34.5597 16.4268 35.0862 16.4268C35.6264 16.4268 36.1321 16.2943 36.6031 16.0293C37.0741 15.7503 37.4481 15.3598 37.7252 14.8577C38.0023 14.3417 38.1408 13.728 38.1408 13.0167Z" fill="#18063C"/>
<path d="M42.9562 12.9749C42.9562 11.8033 43.1847 10.7643 43.6419 9.85774C44.1129 8.95119 44.7432 8.25384 45.5329 7.76569C46.3363 7.27755 47.2299 7.03347 48.2134 7.03347C49.0723 7.03347 49.8204 7.20781 50.4576 7.55648C51.1087 7.90516 51.6282 8.34449 52.0161 8.87448V7.22176H54.9461V18.8117H52.0161V17.1172C51.6421 17.6611 51.1226 18.1144 50.4576 18.477C49.8065 18.8257 49.0516 19 48.1927 19C47.2229 19 46.3363 18.749 45.5329 18.2469C44.7432 17.7448 44.1129 17.0404 43.6419 16.1339C43.1847 15.2134 42.9562 14.1604 42.9562 12.9749ZM52.0161 13.0167C52.0161 12.3054 51.8776 11.6987 51.6005 11.1967C51.3235 10.6806 50.9494 10.2901 50.4784 10.0251C50.0074 9.74616 49.5018 9.60669 48.9615 9.60669C48.4212 9.60669 47.9225 9.73919 47.4654 10.0042C47.0082 10.2692 46.6342 10.6597 46.3433 11.1757C46.0662 11.6778 45.9277 12.2775 45.9277 12.9749C45.9277 13.6722 46.0662 14.2859 46.3433 14.8159C46.6342 15.3319 47.0082 15.7294 47.4654 16.0084C47.9364 16.2873 48.4351 16.4268 48.9615 16.4268C49.5018 16.4268 50.0074 16.2943 50.4784 16.0293C50.9494 15.7503 51.3235 15.3598 51.6005 14.8577C51.8776 14.3417 52.0161 13.728 52.0161 13.0167Z" fill="#18063C"/>
<path d="M62.5875 18.9582C61.5762 18.9582 60.6619 18.7838 59.8446 18.4351C59.0411 18.0865 58.4038 17.5844 57.9328 16.9289C57.4618 16.2734 57.2194 15.4993 57.2055 14.6067H60.3225C60.3641 15.2064 60.5719 15.6806 60.9459 16.0293C61.3338 16.378 61.8602 16.5523 62.5252 16.5523C63.204 16.5523 63.7373 16.3919 64.1252 16.0711C64.5131 15.7364 64.707 15.304 64.707 14.7741C64.707 14.3417 64.5754 13.9861 64.3122 13.7071C64.049 13.4282 63.7165 13.212 63.3148 13.0586C62.9269 12.8912 62.3866 12.7099 61.694 12.5146C60.7519 12.2357 59.9831 11.9637 59.3874 11.6987C58.8056 11.4198 58.2999 11.0084 57.8705 10.4644C57.4549 9.90656 57.2471 9.16736 57.2471 8.24686C57.2471 7.38215 57.4618 6.62901 57.8913 5.98745C58.3207 5.34589 58.9233 4.85774 59.6991 4.52301C60.4749 4.17434 61.3615 4 62.3589 4C63.8551 4 65.0672 4.3696 65.9954 5.10879C66.9374 5.83403 67.4569 6.85216 67.5539 8.16318H64.3538C64.3261 7.66109 64.1113 7.24965 63.7096 6.92887C63.3217 6.59414 62.8022 6.42678 62.1511 6.42678C61.5831 6.42678 61.126 6.57322 60.7797 6.86611C60.4472 7.159 60.2809 7.58438 60.2809 8.14226C60.2809 8.53277 60.4056 8.86053 60.655 9.12552C60.9182 9.37657 61.2368 9.58577 61.6108 9.75314C61.9987 9.90656 62.539 10.0879 63.2317 10.2971C64.1737 10.576 64.9425 10.855 65.5382 11.1339C66.1339 11.4128 66.6465 11.8312 67.0759 12.3891C67.5054 12.947 67.7201 13.6792 67.7201 14.5858C67.7201 15.3668 67.5192 16.092 67.1175 16.7615C66.7157 17.431 66.127 17.9679 65.3512 18.3724C64.5754 18.7629 63.6542 18.9582 62.5875 18.9582Z" fill="#18063C"/>
<path d="M73.4215 9.62762V15.2343C73.4215 15.6248 73.5116 15.9107 73.6917 16.0921C73.8856 16.2594 74.2042 16.3431 74.6475 16.3431H75.9982V18.8117H74.1696C71.7176 18.8117 70.4916 17.6123 70.4916 15.2134V9.62762H69.1201V7.22176H70.4916V4.35565H73.4215V7.22176H75.9982V9.62762H73.4215Z" fill="#18063C"/>
<path d="M82.9947 19C81.8864 19 80.889 18.7559 80.0024 18.2678C79.1158 17.7657 78.4162 17.0614 77.9036 16.1548C77.4049 15.2483 77.1555 14.2022 77.1555 13.0167C77.1555 11.8312 77.4118 10.7852 77.9244 9.87866C78.4508 8.97211 79.1643 8.27476 80.0647 7.78661C80.9652 7.28452 81.9695 7.03347 83.0778 7.03347C84.186 7.03347 85.1904 7.28452 86.0908 7.78661C86.9913 8.27476 87.6978 8.97211 88.2104 9.87866C88.7368 10.7852 89 11.8312 89 13.0167C89 14.2022 88.7299 15.2483 88.1896 16.1548C87.6632 17.0614 86.9428 17.7657 86.0285 18.2678C85.128 18.7559 84.1168 19 82.9947 19ZM82.9947 16.4477C83.5211 16.4477 84.0129 16.3222 84.47 16.0711C84.941 15.8061 85.3151 15.4156 85.5921 14.8996C85.8692 14.3835 86.0077 13.7559 86.0077 13.0167C86.0077 11.9149 85.7168 11.0711 85.135 10.4854C84.567 9.88563 83.8674 9.58577 83.0362 9.58577C82.205 9.58577 81.5054 9.88563 80.9375 10.4854C80.3833 11.0711 80.1063 11.9149 80.1063 13.0167C80.1063 14.1185 80.3764 14.9693 80.9167 15.569C81.4708 16.1548 82.1635 16.4477 82.9947 16.4477Z" fill="#18063C"/>
<path d="M8.09078 13H4.05611C2.36873 13 1 11.6742 1 10.0371V3.9629C1 2.32698 2.36747 1 4.05611 1H8.97274C8.4245 1.0523 7.89382 1.16542 7.38447 1.343C6.66058 1.59599 6.07219 1.97669 5.6193 2.48388C5.1664 2.99108 4.93932 3.59923 4.93932 4.30955C4.93932 5.06973 5.13127 5.68761 5.51517 6.15954C5.89781 6.63268 6.36074 6.98784 6.90146 7.2238C7.44092 7.46098 8.13846 7.69694 8.99281 7.93412C9.69035 8.13724 10.2348 8.31482 10.6275 8.46686C11.0189 8.61889 11.3464 8.83053 11.6086 9.10055C11.8695 9.37057 12 9.71721 12 10.1393C12 10.7644 11.7692 11.251 11.3075 11.5964C10.8458 11.943 10.2047 12.1158 9.38549 12.1158C8.47844 12.1158 7.78593 11.9674 7.30668 11.6718C6.82744 11.3762 6.58782 10.9749 6.58782 10.4677C6.58782 10.0967 6.68818 9.80843 6.88891 9.60531C7.08964 9.40219 7.19001 9.29272 7.19001 9.27569C7.19001 9.19177 7.08086 9.07257 6.86257 8.92054C6.64427 8.7685 6.39587 8.69187 6.11736 8.69187C5.62933 8.69187 5.23289 8.84391 4.92803 9.14798C4.62318 9.45206 4.47012 9.84979 4.47012 10.34C4.47012 11.2023 4.90545 11.8701 5.77737 12.342C6.40967 12.6886 7.18248 12.9051 8.09078 13Z" fill="#FA865F"/>
<path d="M10.0939 0H3.90484C1.75211 0 0 1.75226 0 3.90518V10.0948C0 12.2489 1.75211 14 3.90484 14H10.0939C12.2479 14 14 12.2477 14 10.0948V3.90518C14 1.75226 12.2479 0 10.0939 0ZM13.6657 10.0948C13.6657 12.0667 12.0669 13.6657 10.0952 13.6657H3.90484C1.93312 13.6657 0.334253 12.0667 0.334253 10.0948V3.90518C0.334253 1.93328 1.93312 0.334282 3.90484 0.334282H10.0939C10.935 0.334282 11.7073 0.627532 12.3179 1.11628C13.0129 1.78726 13.4715 2.91199 12.9526 4.03793C12.8838 4.22739 12.7812 4.40117 12.6449 4.55806C12.3686 4.87665 12.0029 5.03594 11.5504 5.03594C11.2813 5.03594 11.0436 4.95992 10.8336 4.80907C10.6237 4.65822 10.5187 4.54116 10.5187 4.45668C10.5187 4.43979 10.5863 4.37342 10.7202 4.25515C10.8542 4.13809 10.976 3.99931 11.0858 3.84001C11.1944 3.68072 11.25 3.49246 11.25 3.27403C11.2162 2.82148 10.9893 2.4691 10.5706 2.21808C10.1507 1.96707 9.65592 1.84036 9.08636 1.84036C8.44923 1.84036 7.89174 1.98759 7.41389 2.28084C6.93605 2.57409 6.69712 2.98078 6.69712 3.50091C6.69712 3.97035 6.79728 4.34325 6.99879 4.6196C7.20031 4.89596 7.50198 5.11921 7.90381 5.28575C8.30564 5.4535 8.94277 5.68037 9.8152 5.96518C10.7033 6.24998 11.3996 6.51427 11.9028 6.75804C12.3299 6.9644 12.6763 7.23472 12.9526 7.56176C12.9562 7.56659 12.9598 7.57021 12.9635 7.57504C13.4317 8.13861 13.6657 8.85906 13.6657 9.59159V10.0948Z" fill="#FA865F"/>
</svg>
