<svg width="72" height="84" viewBox="0 0 72 84" fill="none" xmlns="http://www.w3.org/2000/svg">
<path opacity="0.5" d="M67.4315 1.28903C67.187 0.820013 66.6085 0.63805 66.1395 0.882605C65.6705 1.12716 65.4885 1.70562 65.7331 2.17464L67.4315 1.28903ZM45.6302 43.9555L45.4398 43.0169L45.6302 43.9555ZM0.40555 75.2053C-0.00719862 75.5361 -0.0736377 76.1388 0.257154 76.5516L5.64771 83.2777C5.9785 83.6905 6.58126 83.7569 6.99401 83.4261C7.40676 83.0953 7.4732 82.4926 7.14241 82.0798L2.3508 76.101L8.32957 71.3094C8.74232 70.9786 8.80876 70.3759 8.47797 69.9631C8.14718 69.5504 7.54442 69.4839 7.13167 69.8147L0.40555 75.2053ZM65.7331 2.17464C68.6548 7.77797 71.0939 16.5093 69.0732 24.5378C68.0685 28.5295 65.9599 32.3609 62.2317 35.5828C58.4966 38.8107 53.091 41.4648 45.4398 43.0169L45.8206 44.8941C53.7127 43.2932 59.4439 40.5237 63.4842 37.0321C67.5315 33.5344 69.8372 29.3503 70.9308 25.0053C73.1067 16.3602 70.4786 7.13273 67.4315 1.28903L65.7331 2.17464ZM45.4398 43.0169C35.8904 44.954 29.1975 43.5795 24.8735 40.7753C20.5548 37.9745 18.4805 33.6746 18.2772 29.4842C18.0728 25.2724 19.7568 21.2409 22.8748 18.94C25.9513 16.6698 30.6152 15.9487 36.6819 18.7246L37.4789 16.9828C30.9283 13.9855 25.4951 14.6258 21.7374 17.3988C18.0212 20.1411 16.1338 24.8347 16.3639 29.577C16.5951 34.3407 18.9611 39.224 23.8313 42.3824C28.6962 45.5374 35.9409 46.8983 45.8206 44.8941L45.4398 43.0169ZM36.6819 18.7246C42.6667 21.4631 46.0387 26.5399 47.101 32.624C48.1682 38.7356 46.897 45.8662 43.5305 52.5529C36.8053 65.9109 21.8328 77.2849 1.10943 75.0007L0.899569 76.9046C22.5245 79.2882 38.2072 67.3861 45.2414 53.4143C48.7547 46.4361 50.1393 38.8884 48.988 32.2946C47.8319 25.6734 44.1113 20.0176 37.4789 16.9828L36.6819 18.7246Z" fill="#D26D60"/>
</svg>
